<svg width="150" height="42" viewBox="0 0 150 42" fill="none" xmlns="http://www.w3.org/2000/svg">
<rect width="150" height="42" rx="21" fill="#9953F1"/>
<path d="M57.9238 16.9287L54.6289 26H53.2822L57.0762 16.0469H57.9443L57.9238 16.9287ZM60.6855 26L57.3838 16.9287L57.3633 16.0469H58.2314L62.0391 26H60.6855ZM60.5146 22.3154V23.3955H54.9229V22.3154H60.5146ZM67.8428 24.5645V15.5H69.1143V26H67.9521L67.8428 24.5645ZM62.8662 22.3838V22.2402C62.8662 21.6751 62.9346 21.1624 63.0713 20.7021C63.2126 20.2373 63.4108 19.8385 63.666 19.5059C63.9258 19.1732 64.2334 18.918 64.5889 18.7402C64.9489 18.5579 65.3499 18.4668 65.792 18.4668C66.2568 18.4668 66.6624 18.5488 67.0088 18.7129C67.3597 18.8724 67.6559 19.1071 67.8975 19.417C68.1436 19.7223 68.3372 20.0915 68.4785 20.5244C68.6198 20.9574 68.7178 21.4473 68.7725 21.9941V22.623C68.7223 23.1654 68.6243 23.653 68.4785 24.0859C68.3372 24.5189 68.1436 24.888 67.8975 25.1934C67.6559 25.4987 67.3597 25.7334 67.0088 25.8975C66.6579 26.057 66.2477 26.1367 65.7783 26.1367C65.3454 26.1367 64.9489 26.0433 64.5889 25.8564C64.2334 25.6696 63.9258 25.4076 63.666 25.0703C63.4108 24.7331 63.2126 24.3366 63.0713 23.8809C62.9346 23.4206 62.8662 22.9215 62.8662 22.3838ZM64.1377 22.2402V22.3838C64.1377 22.7529 64.1742 23.0993 64.2471 23.4229C64.3245 23.7464 64.443 24.0312 64.6025 24.2773C64.762 24.5234 64.9648 24.7171 65.2109 24.8584C65.457 24.9951 65.751 25.0635 66.0928 25.0635C66.512 25.0635 66.8561 24.9746 67.125 24.7969C67.3984 24.6191 67.6172 24.3844 67.7812 24.0928C67.9453 23.8011 68.0729 23.4844 68.1641 23.1426V21.4951C68.1094 21.2445 68.0296 21.0029 67.9248 20.7705C67.8245 20.5335 67.6924 20.3239 67.5283 20.1416C67.3688 19.9548 67.1706 19.8066 66.9336 19.6973C66.7012 19.5879 66.4255 19.5332 66.1064 19.5332C65.7601 19.5332 65.4616 19.6061 65.2109 19.752C64.9648 19.8932 64.762 20.0892 64.6025 20.3398C64.443 20.5859 64.3245 20.873 64.2471 21.2012C64.1742 21.5247 64.1377 21.8711 64.1377 22.2402ZM75.7451 24.5645V15.5H77.0166V26H75.8545L75.7451 24.5645ZM70.7686 22.3838V22.2402C70.7686 21.6751 70.8369 21.1624 70.9736 20.7021C71.1149 20.2373 71.3132 19.8385 71.5684 19.5059C71.8281 19.1732 72.1357 18.918 72.4912 18.7402C72.8512 18.5579 73.2523 18.4668 73.6943 18.4668C74.1592 18.4668 74.5648 18.5488 74.9111 18.7129C75.262 18.8724 75.5583 19.1071 75.7998 19.417C76.0459 19.7223 76.2396 20.0915 76.3809 20.5244C76.5221 20.9574 76.6201 21.4473 76.6748 21.9941V22.623C76.6247 23.1654 76.5267 23.653 76.3809 24.0859C76.2396 24.5189 76.0459 24.888 75.7998 25.1934C75.5583 25.4987 75.262 25.7334 74.9111 25.8975C74.5602 26.057 74.1501 26.1367 73.6807 26.1367C73.2477 26.1367 72.8512 26.0433 72.4912 25.8564C72.1357 25.6696 71.8281 25.4076 71.5684 25.0703C71.3132 24.7331 71.1149 24.3366 70.9736 23.8809C70.8369 23.4206 70.7686 22.9215 70.7686 22.3838ZM72.04 22.2402V22.3838C72.04 22.7529 72.0765 23.0993 72.1494 23.4229C72.2269 23.7464 72.3454 24.0312 72.5049 24.2773C72.6644 24.5234 72.8672 24.7171 73.1133 24.8584C73.3594 24.9951 73.6533 25.0635 73.9951 25.0635C74.4144 25.0635 74.7585 24.9746 75.0273 24.7969C75.3008 24.6191 75.5195 24.3844 75.6836 24.0928C75.8477 23.8011 75.9753 23.4844 76.0664 23.1426V21.4951C76.0117 21.2445 75.932 21.0029 75.8271 20.7705C75.7269 20.5335 75.5947 20.3239 75.4307 20.1416C75.2712 19.9548 75.0729 19.8066 74.8359 19.6973C74.6035 19.5879 74.3278 19.5332 74.0088 19.5332C73.6624 19.5332 73.3639 19.6061 73.1133 19.752C72.8672 19.8932 72.6644 20.0892 72.5049 20.3398C72.3454 20.5859 72.2269 20.873 72.1494 21.2012C72.0765 21.5247 72.04 21.8711 72.04 22.2402ZM86.0537 16.0469V26H84.7549V16.0469H86.0537ZM89.2529 16.0469V17.127H81.5625V16.0469H89.2529ZM89.5195 22.3838V22.2266C89.5195 21.6934 89.597 21.1989 89.752 20.7432C89.9069 20.2829 90.1302 19.8841 90.4219 19.5469C90.7135 19.2051 91.0667 18.9408 91.4814 18.7539C91.8962 18.5625 92.361 18.4668 92.876 18.4668C93.3955 18.4668 93.8626 18.5625 94.2773 18.7539C94.6966 18.9408 95.0521 19.2051 95.3438 19.5469C95.64 19.8841 95.8656 20.2829 96.0205 20.7432C96.1755 21.1989 96.2529 21.6934 96.2529 22.2266V22.3838C96.2529 22.917 96.1755 23.4115 96.0205 23.8672C95.8656 24.3229 95.64 24.7217 95.3438 25.0635C95.0521 25.4007 94.6989 25.665 94.2842 25.8564C93.874 26.0433 93.4092 26.1367 92.8896 26.1367C92.3701 26.1367 91.903 26.0433 91.4883 25.8564C91.0736 25.665 90.7181 25.4007 90.4219 25.0635C90.1302 24.7217 89.9069 24.3229 89.752 23.8672C89.597 23.4115 89.5195 22.917 89.5195 22.3838ZM90.7842 22.2266V22.3838C90.7842 22.7529 90.8275 23.1016 90.9141 23.4297C91.0007 23.7533 91.1305 24.0404 91.3037 24.291C91.4814 24.5417 91.7025 24.7399 91.9668 24.8857C92.2311 25.027 92.5387 25.0977 92.8896 25.0977C93.236 25.0977 93.5391 25.027 93.7988 24.8857C94.0632 24.7399 94.2819 24.5417 94.4551 24.291C94.6283 24.0404 94.7581 23.7533 94.8447 23.4297C94.9359 23.1016 94.9814 22.7529 94.9814 22.3838V22.2266C94.9814 21.862 94.9359 21.5179 94.8447 21.1943C94.7581 20.8662 94.626 20.5768 94.4482 20.3262C94.2751 20.071 94.0563 19.8704 93.792 19.7246C93.5322 19.5788 93.2269 19.5059 92.876 19.5059C92.5296 19.5059 92.2243 19.5788 91.96 19.7246C91.7002 19.8704 91.4814 20.071 91.3037 20.3262C91.1305 20.5768 91.0007 20.8662 90.9141 21.1943C90.8275 21.5179 90.7842 21.862 90.7842 22.2266ZM100.471 21.249V22.2881H97.1348V21.249H100.471ZM104.593 26H102.515L102.528 24.9268H104.593C105.304 24.9268 105.896 24.7786 106.37 24.4824C106.844 24.1816 107.2 23.7624 107.437 23.2246C107.678 22.6823 107.799 22.0488 107.799 21.3242V20.7158C107.799 20.1462 107.73 19.6403 107.594 19.1982C107.457 18.7516 107.257 18.3757 106.992 18.0703C106.728 17.7604 106.404 17.5257 106.021 17.3662C105.643 17.2067 105.208 17.127 104.716 17.127H102.474V16.0469H104.716C105.368 16.0469 105.962 16.1562 106.5 16.375C107.038 16.5892 107.5 16.9014 107.888 17.3115C108.28 17.7171 108.58 18.2093 108.79 18.7881C109 19.3623 109.104 20.0094 109.104 20.7295V21.3242C109.104 22.0443 109 22.6937 108.79 23.2725C108.58 23.8467 108.277 24.3366 107.881 24.7422C107.489 25.1478 107.015 25.46 106.459 25.6787C105.908 25.8929 105.285 26 104.593 26ZM103.219 16.0469V26H101.899V16.0469H103.219ZM110.561 22.3838V22.2266C110.561 21.6934 110.638 21.1989 110.793 20.7432C110.948 20.2829 111.171 19.8841 111.463 19.5469C111.755 19.2051 112.108 18.9408 112.522 18.7539C112.937 18.5625 113.402 18.4668 113.917 18.4668C114.437 18.4668 114.904 18.5625 115.318 18.7539C115.738 18.9408 116.093 19.2051 116.385 19.5469C116.681 19.8841 116.907 20.2829 117.062 20.7432C117.216 21.1989 117.294 21.6934 117.294 22.2266V22.3838C117.294 22.917 117.216 23.4115 117.062 23.8672C116.907 24.3229 116.681 24.7217 116.385 25.0635C116.093 25.4007 115.74 25.665 115.325 25.8564C114.915 26.0433 114.45 26.1367 113.931 26.1367C113.411 26.1367 112.944 26.0433 112.529 25.8564C112.115 25.665 111.759 25.4007 111.463 25.0635C111.171 24.7217 110.948 24.3229 110.793 23.8672C110.638 23.4115 110.561 22.917 110.561 22.3838ZM111.825 22.2266V22.3838C111.825 22.7529 111.868 23.1016 111.955 23.4297C112.042 23.7533 112.172 24.0404 112.345 24.291C112.522 24.5417 112.743 24.7399 113.008 24.8857C113.272 25.027 113.58 25.0977 113.931 25.0977C114.277 25.0977 114.58 25.027 114.84 24.8857C115.104 24.7399 115.323 24.5417 115.496 24.291C115.669 24.0404 115.799 23.7533 115.886 23.4297C115.977 23.1016 116.022 22.7529 116.022 22.3838V22.2266C116.022 21.862 115.977 21.5179 115.886 21.1943C115.799 20.8662 115.667 20.5768 115.489 20.3262C115.316 20.071 115.097 19.8704 114.833 19.7246C114.573 19.5788 114.268 19.5059 113.917 19.5059C113.571 19.5059 113.265 19.5788 113.001 19.7246C112.741 19.8704 112.522 20.071 112.345 20.3262C112.172 20.5768 112.042 20.8662 111.955 21.1943C111.868 21.5179 111.825 21.862 111.825 22.2266Z" fill="white"/>
<rect width="42" height="42" rx="21" fill="#AA68FE"/>
<path d="M21.6084 20.6611H24.3838V21.8574H21.6084V25.002H20.3369V21.8574H17.5615V20.6611H20.3369V17.7559H21.6084V20.6611Z" fill="white"/>
</svg>
