<svg width="158" height="50" viewBox="0 0 158 50" fill="none" xmlns="http://www.w3.org/2000/svg">
<g filter="url(#filter0_d_132_0)">
<rect x="4" width="150" height="42" rx="21" fill="#469418"/>
<path d="M67.3926 22.835H68.7051C68.6367 23.4639 68.4567 24.0267 68.165 24.5234C67.8734 25.0202 67.4609 25.4144 66.9277 25.7061C66.3945 25.9932 65.7292 26.1367 64.9316 26.1367C64.3483 26.1367 63.8174 26.0273 63.3389 25.8086C62.8649 25.5898 62.457 25.2799 62.1152 24.8789C61.7734 24.4733 61.5091 23.988 61.3223 23.4229C61.14 22.8532 61.0488 22.2197 61.0488 21.5225V20.5312C61.0488 19.834 61.14 19.2028 61.3223 18.6377C61.5091 18.068 61.7757 17.5804 62.1221 17.1748C62.473 16.7692 62.8945 16.457 63.3867 16.2383C63.8789 16.0195 64.4326 15.9102 65.0479 15.9102C65.7998 15.9102 66.4355 16.0514 66.9551 16.334C67.4746 16.6165 67.8779 17.0085 68.165 17.5098C68.4567 18.0065 68.6367 18.583 68.7051 19.2393H67.3926C67.3288 18.7744 67.2103 18.3757 67.0371 18.043C66.8639 17.7057 66.6178 17.446 66.2988 17.2637C65.9798 17.0814 65.5628 16.9902 65.0479 16.9902C64.6058 16.9902 64.2161 17.0745 63.8789 17.2432C63.5462 17.4118 63.266 17.651 63.0381 17.9609C62.8148 18.2708 62.6462 18.6423 62.5322 19.0752C62.4183 19.5081 62.3613 19.9889 62.3613 20.5176V21.5225C62.3613 22.0101 62.4115 22.4681 62.5117 22.8965C62.6165 23.3249 62.7738 23.7008 62.9834 24.0244C63.193 24.348 63.4596 24.6032 63.7832 24.79C64.1068 24.9723 64.4896 25.0635 64.9316 25.0635C65.4922 25.0635 65.9388 24.9746 66.2715 24.7969C66.6042 24.6191 66.8548 24.3639 67.0234 24.0312C67.1966 23.6986 67.3197 23.2998 67.3926 22.835ZM71.6855 15.5V26H70.4141V15.5H71.6855ZM76.7852 26.1367C76.2702 26.1367 75.8031 26.0501 75.3838 25.877C74.9691 25.6992 74.6113 25.4508 74.3105 25.1318C74.0143 24.8128 73.7865 24.4346 73.627 23.9971C73.4674 23.5596 73.3877 23.0811 73.3877 22.5615V22.2744C73.3877 21.6729 73.4766 21.1374 73.6543 20.668C73.832 20.194 74.0736 19.793 74.3789 19.4648C74.6842 19.1367 75.0306 18.8883 75.418 18.7197C75.8053 18.5511 76.2064 18.4668 76.6211 18.4668C77.1497 18.4668 77.6055 18.5579 77.9883 18.7402C78.3757 18.9225 78.6924 19.1777 78.9385 19.5059C79.1846 19.8294 79.3669 20.2122 79.4854 20.6543C79.6038 21.0918 79.6631 21.5703 79.6631 22.0898V22.6572H74.1396V21.625H78.3984V21.5293C78.3802 21.2012 78.3118 20.8822 78.1934 20.5723C78.0794 20.2624 77.8971 20.0072 77.6465 19.8066C77.3958 19.6061 77.054 19.5059 76.6211 19.5059C76.334 19.5059 76.0697 19.5674 75.8281 19.6904C75.5866 19.8089 75.3792 19.9867 75.2061 20.2236C75.0329 20.4606 74.8984 20.75 74.8027 21.0918C74.707 21.4336 74.6592 21.8278 74.6592 22.2744V22.5615C74.6592 22.9124 74.707 23.2428 74.8027 23.5527C74.903 23.8581 75.0465 24.127 75.2334 24.3594C75.4248 24.5918 75.6549 24.7741 75.9238 24.9062C76.1973 25.0384 76.5072 25.1045 76.8535 25.1045C77.3001 25.1045 77.6784 25.0133 77.9883 24.8311C78.2982 24.6488 78.5693 24.4049 78.8018 24.0996L79.5674 24.708C79.4079 24.9495 79.2051 25.1797 78.959 25.3984C78.7129 25.6172 78.4098 25.7949 78.0498 25.9316C77.6943 26.0684 77.2728 26.1367 76.7852 26.1367ZM85.501 24.7354V20.9277C85.501 20.6361 85.4417 20.3831 85.3232 20.1689C85.2093 19.9502 85.0361 19.7816 84.8037 19.6631C84.5713 19.5446 84.2842 19.4854 83.9424 19.4854C83.6234 19.4854 83.3431 19.54 83.1016 19.6494C82.8646 19.7588 82.6777 19.9023 82.541 20.0801C82.4089 20.2578 82.3428 20.4492 82.3428 20.6543H81.0781C81.0781 20.39 81.1465 20.1279 81.2832 19.8682C81.4199 19.6084 81.6159 19.3737 81.8711 19.1641C82.1309 18.9499 82.4408 18.7812 82.8008 18.6582C83.1654 18.5306 83.571 18.4668 84.0176 18.4668C84.5553 18.4668 85.0293 18.5579 85.4395 18.7402C85.8542 18.9225 86.1777 19.1982 86.4102 19.5674C86.6471 19.932 86.7656 20.39 86.7656 20.9414V24.3867C86.7656 24.6328 86.7861 24.8949 86.8271 25.1729C86.8727 25.4508 86.9388 25.6901 87.0254 25.8906V26H85.7061C85.6423 25.8542 85.5921 25.6605 85.5557 25.4189C85.5192 25.1729 85.501 24.945 85.501 24.7354ZM85.7197 21.5156L85.7334 22.4043H84.4551C84.0951 22.4043 83.7738 22.4339 83.4912 22.4932C83.2087 22.5479 82.9717 22.6322 82.7803 22.7461C82.5889 22.86 82.443 23.0036 82.3428 23.1768C82.2425 23.3454 82.1924 23.5436 82.1924 23.7715C82.1924 24.0039 82.2448 24.2158 82.3496 24.4072C82.4544 24.5986 82.6117 24.7513 82.8213 24.8652C83.0355 24.9746 83.2975 25.0293 83.6074 25.0293C83.9948 25.0293 84.3366 24.9473 84.6328 24.7832C84.929 24.6191 85.1637 24.4186 85.3369 24.1816C85.5146 23.9447 85.6104 23.7145 85.624 23.4912L86.1641 24.0996C86.1322 24.291 86.0456 24.5029 85.9043 24.7354C85.763 24.9678 85.5739 25.1911 85.3369 25.4053C85.1045 25.6149 84.8265 25.7904 84.5029 25.9316C84.1839 26.0684 83.8239 26.1367 83.4229 26.1367C82.9215 26.1367 82.4818 26.0387 82.1035 25.8428C81.7298 25.6468 81.4382 25.3848 81.2285 25.0566C81.0234 24.724 80.9209 24.3525 80.9209 23.9424C80.9209 23.5459 80.9984 23.1973 81.1533 22.8965C81.3083 22.5911 81.5316 22.3382 81.8232 22.1377C82.1149 21.9326 82.4658 21.7777 82.876 21.6729C83.2861 21.568 83.7441 21.5156 84.25 21.5156H85.7197ZM90.0195 19.7656V26H88.7549V18.6035H89.9854L90.0195 19.7656ZM92.3301 18.5625L92.3232 19.7383C92.2184 19.7155 92.1182 19.7018 92.0225 19.6973C91.9313 19.6882 91.8265 19.6836 91.708 19.6836C91.4163 19.6836 91.1589 19.7292 90.9355 19.8203C90.7122 19.9115 90.5231 20.0391 90.3682 20.2031C90.2132 20.3672 90.0902 20.5632 89.999 20.791C89.9124 21.0143 89.8555 21.2604 89.8281 21.5293L89.4727 21.7344C89.4727 21.2878 89.516 20.8685 89.6025 20.4766C89.6937 20.0846 89.8327 19.7383 90.0195 19.4375C90.2064 19.1322 90.4434 18.8952 90.7305 18.7266C91.0221 18.5534 91.3685 18.4668 91.7695 18.4668C91.8607 18.4668 91.9655 18.4782 92.084 18.501C92.2025 18.5192 92.2845 18.5397 92.3301 18.5625ZM103.199 24.9268V26H98.2227V24.9268H103.199ZM98.4824 16.0469V26H97.1631V16.0469H98.4824ZM105.893 18.6035V26H104.621V18.6035H105.893ZM104.525 16.6416C104.525 16.4365 104.587 16.2633 104.71 16.1221C104.838 15.9808 105.024 15.9102 105.271 15.9102C105.512 15.9102 105.697 15.9808 105.824 16.1221C105.956 16.2633 106.022 16.4365 106.022 16.6416C106.022 16.8376 105.956 17.0062 105.824 17.1475C105.697 17.2842 105.512 17.3525 105.271 17.3525C105.024 17.3525 104.838 17.2842 104.71 17.1475C104.587 17.0062 104.525 16.8376 104.525 16.6416ZM112.229 24.0381C112.229 23.8558 112.188 23.6872 112.106 23.5322C112.029 23.3727 111.867 23.2292 111.621 23.1016C111.38 22.9694 111.015 22.8555 110.527 22.7598C110.117 22.6732 109.746 22.5706 109.413 22.4521C109.085 22.3337 108.805 22.1901 108.572 22.0215C108.344 21.8529 108.169 21.6546 108.046 21.4268C107.923 21.1989 107.861 20.9323 107.861 20.627C107.861 20.3353 107.925 20.0596 108.053 19.7998C108.185 19.54 108.369 19.3099 108.606 19.1094C108.848 18.9089 109.137 18.7516 109.475 18.6377C109.812 18.5238 110.188 18.4668 110.603 18.4668C111.195 18.4668 111.701 18.5716 112.12 18.7812C112.539 18.9909 112.861 19.2712 113.084 19.6221C113.307 19.9684 113.419 20.3535 113.419 20.7773H112.154C112.154 20.5723 112.093 20.374 111.97 20.1826C111.851 19.9867 111.676 19.8249 111.443 19.6973C111.215 19.5697 110.935 19.5059 110.603 19.5059C110.252 19.5059 109.967 19.5605 109.748 19.6699C109.534 19.7747 109.377 19.9092 109.276 20.0732C109.181 20.2373 109.133 20.4105 109.133 20.5928C109.133 20.7295 109.156 20.8525 109.201 20.9619C109.251 21.0667 109.338 21.1647 109.461 21.2559C109.584 21.3424 109.757 21.4245 109.98 21.502C110.204 21.5794 110.489 21.6569 110.835 21.7344C111.441 21.8711 111.94 22.0352 112.332 22.2266C112.724 22.418 113.016 22.6527 113.207 22.9307C113.398 23.2087 113.494 23.5459 113.494 23.9424C113.494 24.266 113.426 24.5622 113.289 24.8311C113.157 25.0999 112.963 25.3324 112.708 25.5283C112.457 25.7197 112.157 25.8701 111.806 25.9795C111.459 26.0843 111.07 26.1367 110.637 26.1367C109.985 26.1367 109.434 26.0205 108.982 25.7881C108.531 25.5557 108.189 25.2549 107.957 24.8857C107.725 24.5166 107.608 24.127 107.608 23.7168H108.88C108.898 24.0632 108.998 24.3389 109.181 24.5439C109.363 24.7445 109.586 24.888 109.851 24.9746C110.115 25.0566 110.377 25.0977 110.637 25.0977C110.983 25.0977 111.272 25.0521 111.505 24.9609C111.742 24.8698 111.922 24.7445 112.045 24.585C112.168 24.4255 112.229 24.2432 112.229 24.0381ZM118.252 18.6035V19.5742H114.253V18.6035H118.252ZM115.606 16.8057H116.871V24.168C116.871 24.4186 116.91 24.6077 116.987 24.7354C117.065 24.863 117.165 24.9473 117.288 24.9883C117.411 25.0293 117.543 25.0498 117.685 25.0498C117.789 25.0498 117.899 25.0407 118.013 25.0225C118.131 24.9997 118.22 24.9814 118.279 24.9678L118.286 26C118.186 26.0319 118.054 26.0615 117.89 26.0889C117.73 26.1208 117.536 26.1367 117.309 26.1367C116.999 26.1367 116.714 26.0752 116.454 25.9521C116.194 25.8291 115.987 25.624 115.832 25.3369C115.682 25.0452 115.606 24.6533 115.606 24.1611V16.8057Z" fill="white"/>
<rect x="4" width="42" height="42" rx="21" fill="#80AB13"/>
<path d="M26.6611 21.249V22.2881H23.3252V21.249H26.6611Z" fill="white"/>
</g>
<defs>
<filter id="filter0_d_132_0" x="0" y="0" width="158" height="50" filterUnits="userSpaceOnUse" color-interpolation-filters="sRGB">
<feFlood flood-opacity="0" result="BackgroundImageFix"/>
<feColorMatrix in="SourceAlpha" type="matrix" values="0 0 0 0 0 0 0 0 0 0 0 0 0 0 0 0 0 0 127 0" result="hardAlpha"/>
<feOffset dy="4"/>
<feGaussianBlur stdDeviation="2"/>
<feComposite in2="hardAlpha" operator="out"/>
<feColorMatrix type="matrix" values="0 0 0 0 0 0 0 0 0 0 0 0 0 0 0 0 0 0 0.25 0"/>
<feBlend mode="normal" in2="BackgroundImageFix" result="effect1_dropShadow_132_0"/>
<feBlend mode="normal" in="SourceGraphic" in2="effect1_dropShadow_132_0" result="shape"/>
</filter>
</defs>
</svg>
